<!-- icon666.com - MILLIONS vector ICONS FREE --><svg id="Layer_1" enable-background="new 0 0 512.034 512.034" viewBox="0 0 512.034 512.034" xmlns="http://www.w3.org/2000/svg"><g><g><path d="m342.196 98.006-165.053 1.339c-52.279 29.549-80.8 84.924-80.8 136.973v242.586c0 18.279 14.818 33.097 33.097 33.097h253.118c18.279 0 33.097-14.818 33.097-33.097v-242.586c.001-47.395-13.211-103.687-73.459-138.312z" fill="#fcced3"></path><path d="m342.196 98.006-81.872.664v413.33h122.235c18.279 0 33.097-14.818 33.097-33.097v-242.585c0-47.395-13.212-103.687-73.46-138.312z" fill="#f9a7b0"></path><path d="m362.92 143.173c0-48.307-39.161-87.468-87.468-87.468h-31.369c-48.307 0-87.468 39.161-87.468 87.468v122.56c0 16.937 4.108 32.904 11.341 47.004 25.163-17.802 53.473 16.925 87.78 16.925 35.737 0 68.673-33.628 94.502-14.354 8.079-14.713 12.683-31.604 12.683-49.575v-122.56z" fill="#ff346f"></path><path d="m275.452 55.705h-15.127v273.774c33.964-2.612 65.193-32.617 89.912-14.171 8.079-14.713 12.683-31.604 12.683-49.575v-122.56c0-48.307-39.161-87.468-87.468-87.468z" fill="#c6397f"></path><path d="m167.955 312.737c17.098 33.328 51.778 56.149 91.812 56.149 39 0 72.936-21.648 90.47-53.578-25.829-19.274-57.219-29.486-92.956-29.486-34.307 0-64.163 9.113-89.326 26.915z" fill="#ff688f"></path><path d="m260.324 368.887c38.765-.206 72.462-21.791 89.912-53.569-25.09-18.722-55.44-28.865-89.912-29.432z" fill="#ff0c7c"></path></g><path d="m499.279 391.667-29.784-4.509c-22.678-3.434-40.223-20.978-43.656-43.656l-4.51-29.785c-1.11-7.333-7.414-12.754-14.831-12.754s-13.721 5.421-14.831 12.755l-4.509 29.784c-3.434 22.678-20.978 40.223-43.656 43.656l-29.784 4.509c-7.334 1.11-12.755 7.414-12.755 14.831s5.421 13.721 12.754 14.831l29.785 4.51c22.678 3.434 40.223 20.978 43.656 43.656l4.509 29.785c1.11 7.333 7.414 12.754 14.831 12.754s13.721-5.421 14.831-12.754l4.51-29.784c3.434-22.678 20.978-40.223 43.656-43.656l29.784-4.51c7.333-1.11 12.754-7.414 12.754-14.831s-5.42-13.722-12.754-14.832z" fill="#ffda2d"></path><path d="m226.008 104.55-34.339-5.199c-5.078-.769-10.042-2.16-14.755-4.135-19.9-8.339-34.271-26.778-37.502-48.123l-5.199-34.339c-1.111-7.333-7.415-12.754-14.832-12.754s-13.721 5.421-14.831 12.754l-5.199 34.339c-4.11 27.147-25.111 48.148-52.257 52.258l-34.339 5.199c-7.334 1.111-12.755 7.414-12.755 14.831s5.421 13.721 12.754 14.831l34.339 5.199c27.146 4.11 48.147 25.111 52.257 52.257l5.199 34.339c1.11 7.333 7.414 12.754 14.831 12.754s13.721-5.421 14.831-12.754l5.199-34.339c4.11-27.146 25.111-48.147 52.257-52.257l34.339-5.199c7.333-1.11 12.754-7.414 12.754-14.831s-5.418-13.72-12.752-14.831z" fill="#feff89"></path><path d="m226.008 104.55-34.339-5.199c-5.078-.769-10.042-2.16-14.755-4.135-19.9-8.339-34.271-26.778-37.502-48.123l-5.199-34.339c-1.111-7.333-7.415-12.754-14.832-12.754-.274 0-.543.022-.813.037v238.688c.271.015.539.037.813.037 7.417 0 13.721-5.421 14.831-12.754l5.199-34.339c4.11-27.146 25.111-48.147 52.257-52.257l34.339-5.199c7.333-1.11 12.754-7.414 12.754-14.831s-5.419-13.721-12.753-14.832z" fill="#fff24c"></path><path d="m499.279 391.667-29.784-4.509c-22.678-3.434-40.223-20.978-43.656-43.656l-4.51-29.785c-1.11-7.333-7.414-12.754-14.831-12.754-.069 0-.135.008-.204.009v211.053c.068.001.135.009.204.009 7.417 0 13.721-5.421 14.831-12.754l4.51-29.784c3.434-22.678 20.978-40.223 43.656-43.656l29.784-4.51c7.333-1.11 12.754-7.414 12.754-14.831s-5.42-13.722-12.754-14.832z" fill="#ffb139"></path></g></svg>